<?xml version="1.0" standalone="no"?>
<!DOCTYPE svg PUBLIC "-//W3C//DTD SVG 20010904//EN"
 "http://www.w3.org/TR/2001/REC-SVG-20010904/DTD/svg10.dtd">
<svg version="1.0" xmlns="http://www.w3.org/2000/svg"
 width="400.000000pt" height="400.000000pt" viewBox="0 0 400.000000 400.000000"
 preserveAspectRatio="xMidYMid meet">

<g transform="translate(0.000000,400.000000) scale(0.100000,-0.100000)"
fill="#000000" stroke="none">
<path d="M10 3955 c0 -13 228 -15 1995 -15 1767 0 1995 2 1995 15 0 13 -228
15 -1995 15 -1767 0 -1995 -2 -1995 -15z"/>
<path d="M1934 3706 c-185 -35 -282 -94 -334 -202 -22 -45 -24 -64 -28 -235
l-4 -187 -28 -5 c-15 -4 -30 -13 -33 -21 -4 -9 -9 -73 -13 -143 -7 -142 -4
-154 52 -239 22 -32 43 -84 54 -128 21 -84 45 -134 102 -219 50 -74 68 -126
68 -198 l0 -59 -510 0 -511 0 7 75 c5 54 3 79 -6 90 -11 13 -58 15 -326 15
-362 0 -334 9 -334 -109 l0 -71 -40 0 c-33 0 -40 -3 -40 -20 0 -20 7 -20 865
-20 514 0 865 -4 865 -9 0 -17 -61 -60 -93 -66 -18 -3 -393 -4 -835 -3 -758 3
-802 2 -802 -14 0 -17 46 -18 825 -18 l825 0 0 -30 c0 -20 -9 -39 -26 -55 -37
-34 -299 -162 -494 -241 -212 -85 -236 -98 -255 -133 -15 -30 -37 -136 -100
-486 -20 -110 -40 -210 -45 -222 l-10 -23 -277 0 c-293 0 -443 -7 -443 -21 0
-5 164 -9 365 -9 201 0 365 -3 365 -7 0 -51 -47 -339 -61 -376 -11 -27 -24
-90 -29 -140 -14 -129 -13 -157 4 -157 11 0 16 20 21 78 10 125 15 150 40 184
50 69 76 118 82 152 7 45 -7 46 -32 4 l-20 -33 -3 31 c-2 18 18 150 43 295 25
145 61 359 80 476 20 129 40 223 50 241 23 39 45 51 210 112 189 71 318 129
421 190 48 28 89 48 92 45 3 -2 9 -68 15 -145 6 -77 14 -140 18 -140 4 0 29
18 55 40 44 39 49 41 102 38 51 -3 59 -6 75 -33 10 -16 43 -70 73 -120 31 -49
58 -101 61 -115 2 -14 -2 -51 -10 -81 -12 -41 -18 -162 -26 -509 -6 -250 -14
-512 -17 -582 -6 -123 -5 -128 14 -128 19 0 20 11 26 518 5 501 17 712 42 755
10 17 11 17 26 0 26 -30 43 -322 44 -778 1 -526 -1 -495 25 -495 21 0 21 3 15
108 -3 59 -8 294 -11 522 -3 228 -11 458 -18 510 -21 172 -20 182 51 296 34
56 62 109 62 117 0 10 14 18 39 22 51 8 104 -14 158 -67 31 -30 44 -38 48 -27
2 8 6 80 7 160 l3 146 247 -118 c135 -64 295 -136 355 -159 59 -24 115 -50
125 -59 21 -20 38 -148 27 -205 -6 -33 -3 -51 16 -91 29 -63 157 -678 155
-747 -1 -7 -12 0 -25 17 -17 21 -28 26 -35 19 -7 -7 1 -25 26 -57 20 -26 40
-47 45 -47 16 0 31 -42 68 -188 34 -132 40 -147 60 -150 18 -3 22 0 17 15 -70
231 -177 640 -192 731 l-7 42 302 0 c261 0 301 2 301 15 0 13 -40 15 -297 15
-164 0 -304 4 -311 9 -9 5 -31 117 -63 307 -26 164 -52 308 -57 318 -5 12
-123 70 -350 171 -188 84 -353 160 -367 169 -29 19 -50 51 -59 89 l-6 27 755
0 755 0 0 22 0 21 -738 -5 c-797 -7 -787 -7 -841 46 l-26 26 803 0 c795 0 802
0 802 20 0 17 -7 20 -45 20 -42 0 -45 2 -45 25 0 14 -9 35 -20 47 -26 28 -26
78 0 120 27 44 27 109 0 126 -15 9 -20 23 -20 56 0 28 7 52 20 69 28 35 26 86
-5 127 -32 43 -32 84 0 135 13 22 25 46 25 53 0 10 -67 12 -345 10 -406 -4
-378 5 -383 -118 -3 -66 0 -87 16 -119 l21 -39 -21 -42 c-20 -39 -20 -48 -9
-103 8 -40 10 -96 5 -171 -5 -94 -4 -117 10 -144 l17 -32 -411 0 -410 0 -6 25
c-14 57 6 117 89 266 21 37 55 113 75 170 21 57 55 129 76 159 l38 55 -4 140
c-4 152 -13 185 -52 185 l-24 0 -4 193 c-4 209 -8 228 -74 306 -87 104 -374
166 -580 127z m292 -36 c179 -32 291 -99 319 -193 16 -54 22 -387 8 -387 -5 0
-24 26 -43 58 -31 51 -35 66 -38 140 l-4 84 -77 -9 c-42 -4 -217 -7 -388 -6
l-313 2 0 -63 c0 -35 -5 -78 -11 -97 -13 -39 -55 -99 -70 -99 -10 0 -12 188
-3 304 7 76 7 76 67 142 33 35 74 72 91 82 39 20 225 50 327 51 41 1 102 -4
135 -9z m-141 -345 c88 0 202 2 254 5 l94 5 14 -79 c13 -75 53 -174 91 -224
l18 -23 28 22 c44 35 51 17 54 -144 3 -133 2 -144 -18 -170 -12 -15 -30 -27
-41 -27 -16 0 -19 7 -19 50 0 95 -17 49 -23 -62 -9 -160 -40 -255 -112 -343
l-24 -30 -1 33 c0 37 -19 79 -46 104 -32 28 -162 72 -185 62 -17 -8 -12 -15
49 -60 41 -31 75 -66 85 -87 21 -44 22 -138 2 -177 -26 -50 -45 -54 -227 -55
-154 0 -169 2 -195 21 -37 27 -53 112 -33 176 12 42 69 107 135 155 27 19 28
22 11 29 -31 12 -156 -34 -193 -71 -29 -29 -33 -40 -33 -85 0 -29 -4 -49 -9
-45 -5 3 -28 33 -50 66 -59 89 -83 171 -87 307 -3 114 -17 156 -22 69 -3 -44
-5 -47 -25 -41 -53 16 -57 27 -57 176 0 77 5 148 10 159 13 23 33 25 50 4 26
-31 46 -16 90 68 36 69 44 94 48 155 l5 73 101 -8 c55 -4 173 -8 261 -8z
m1158 -593 c-7 -99 -27 -106 -31 -13 -2 49 1 68 14 82 10 11 19 18 20 16 2 -2
1 -40 -3 -85z m592 39 c11 -18 -17 -23 -125 -22 -60 0 -119 -3 -132 -9 -16 -6
18 -9 110 -9 81 -1 132 -5 132 -11 0 -6 -47 -10 -120 -10 -73 0 -120 -4 -120
-10 0 -6 42 -10 106 -10 113 0 154 -11 133 -36 -9 -11 -58 -14 -270 -14 l-259
0 -10 26 c-6 14 -10 27 -10 30 0 2 38 4 85 4 50 0 85 4 85 10 0 6 -35 10 -85
10 -82 0 -85 1 -85 23 0 13 3 27 7 30 10 11 551 8 558 -2z m-581 -285 c-6 -71
-5 -76 19 -100 16 -16 21 -26 12 -26 -7 0 -25 14 -39 31 -20 24 -26 41 -26 80
0 52 13 89 31 89 6 0 7 -27 3 -74z m595 28 c14 -13 -26 -19 -145 -22 -74 -2
-134 -8 -134 -13 0 -5 60 -10 133 -11 l132 -2 -120 -3 c-153 -5 -180 -23 -33
-23 120 0 168 -11 148 -35 -10 -13 -54 -15 -264 -15 -138 0 -256 4 -262 8 -6
4 -14 17 -18 30 -7 22 -6 22 78 22 51 0 86 4 86 10 0 6 -33 10 -80 10 -86 0
-107 13 -79 46 12 14 43 15 284 9 148 -4 272 -9 274 -11z m-1999 -89 c0 -2 -7
-30 -15 -62 -18 -67 -12 -194 11 -230 25 -39 202 -58 367 -39 100 11 115 28
123 138 5 68 3 98 -10 138 -20 60 -15 73 14 39 18 -22 20 -36 18 -155 -3 -152
-8 -163 -88 -189 -149 -49 -403 -26 -447 42 -12 19 -18 56 -21 141 -4 98 -2
121 13 149 15 28 35 44 35 28z m1405 -175 c-8 -80 4 -121 38 -138 17 -8 18
-11 5 -11 -9 -1 -30 10 -45 23 -26 23 -28 29 -27 95 2 61 14 101 31 101 3 0 2
-32 -2 -70z m594 15 c14 -14 -24 -20 -145 -23 -74 -2 -134 -8 -134 -13 0 -5
57 -9 130 -9 80 0 130 -4 130 -10 0 -6 -49 -10 -127 -10 -87 0 -123 -3 -113
-10 8 -5 65 -10 127 -10 61 0 114 -4 117 -8 2 -4 1 -14 -4 -22 -8 -12 -54 -16
-259 -18 -241 -3 -251 -2 -271 18 -40 40 -28 50 65 50 50 0 85 4 85 10 0 6
-35 10 -85 10 -82 0 -85 1 -85 23 0 13 3 27 8 32 7 8 552 -2 561 -10z m-3140
-54 c7 -5 10 -14 7 -20 -8 -12 -540 -16 -570 -5 -13 5 -14 9 -5 20 9 11 64 14
283 14 149 0 277 -4 285 -9z m-15 -71 c20 -7 26 -16 26 -40 l0 -30 -295 0
-295 0 0 35 0 34 63 4 c145 8 478 6 501 -3z m1313 -130 c91 -12 207 0 288 31
27 10 53 19 56 19 3 0 11 -57 18 -126 l11 -126 -24 -29 c-13 -15 -50 -58 -82
-94 l-59 -65 -123 0 c-86 0 -131 4 -150 14 -36 19 -140 141 -148 173 -4 14 -2
48 5 75 6 27 11 78 11 113 l0 63 59 -18 c32 -10 94 -24 138 -30z m-246 -85
c-39 -88 -29 -115 93 -242 l59 -63 -58 0 c-61 0 -142 -30 -152 -56 -3 -8 -10
-14 -16 -14 -14 0 -2 248 16 321 16 64 54 126 69 111 6 -6 2 -27 -11 -57z
m679 20 c13 -16 39 -240 40 -344 l0 -54 -23 21 c-35 33 -91 52 -153 52 l-58 0
40 34 c52 44 121 134 135 174 9 27 8 38 -10 72 -27 53 -28 85 -3 71 10 -5 25
-17 32 -26z m-298 -359 c25 -7 55 -20 66 -27 20 -14 19 -16 -16 -72 l-36 -58
-14 26 c-11 21 -18 26 -38 21 -13 -4 -34 -2 -45 4 -18 10 -22 8 -32 -19 -6
-17 -14 -31 -17 -31 -3 0 -20 26 -37 58 l-32 58 30 18 c63 37 104 42 171 22z"/>
<path d="M1724 3060 c-23 -9 -58 -57 -46 -64 4 -2 74 -4 155 -3 131 2 150 4
158 20 6 9 7 26 4 37 -6 19 -15 20 -128 19 -67 0 -131 -4 -143 -9z"/>
<path d="M2183 3063 c-19 -7 -16 -60 3 -67 21 -8 304 -8 304 1 0 3 -11 21 -26
40 l-25 33 -122 -1 c-67 0 -128 -3 -134 -6z"/>
<path d="M1553 2998 c-6 -7 -13 -21 -17 -32 -5 -15 -2 -17 15 -13 15 4 19 2
15 -8 -16 -43 -17 -85 -2 -114 9 -17 20 -31 25 -31 14 0 24 151 12 183 -11 29
-32 35 -48 15z"/>
<path d="M2577 2972 c-13 -14 -17 -37 -17 -95 0 -82 10 -100 34 -65 18 25 21
84 6 122 -8 23 -7 26 11 26 12 0 19 5 17 13 -7 20 -33 19 -51 -1z"/>
<path d="M1735 2938 c-19 -11 -17 -13 19 -23 56 -16 56 -32 1 -41 -27 -4 -43
-10 -38 -15 14 -14 219 -24 227 -11 4 7 -4 14 -19 18 -33 8 -27 26 13 38 68
19 30 37 -93 43 -61 2 -96 0 -110 -9z"/>
<path d="M2243 2943 c-12 -2 -27 -11 -33 -19 -11 -12 -6 -14 28 -14 23 0 44
-5 47 -11 9 -14 -24 -38 -53 -39 -47 0 -10 -19 52 -25 48 -5 78 -3 122 11 l59
17 -43 9 c-53 11 -51 31 4 38 l39 5 -25 18 c-19 13 -42 17 -100 16 -41 -1 -85
-4 -97 -6z"/>
<path d="M1941 2663 c-8 -21 -16 -43 -18 -50 -7 -18 110 -73 154 -73 21 1 67
11 103 23 62 21 65 23 64 53 -2 33 -30 84 -46 84 -6 0 -7 -8 -3 -17 20 -47 17
-71 -10 -89 -51 -33 -214 -17 -229 22 -3 8 1 31 9 50 11 26 11 34 1 34 -6 0
-18 -17 -25 -37z"/>
<path d="M1940 2407 c-46 -24 -62 -53 -38 -68 19 -13 335 -11 359 1 50 27 -54
97 -125 85 -51 -8 -61 -8 -111 0 -32 5 -49 1 -85 -18z m145 -20 c6 0 26 3 45
7 27 5 41 2 60 -14 l25 -20 -130 1 -130 0 24 20 c18 15 32 18 60 13 20 -4 41
-7 46 -7z"/>
<path d="M1920 2290 c0 -5 10 -21 23 -36 21 -24 32 -28 105 -32 121 -7 182 11
182 53 0 11 -7 11 -37 -2 -57 -25 -167 -23 -225 4 -27 12 -48 18 -48 13z"/>
<path d="M3185 1372 c-8 -57 -76 -294 -152 -527 l-56 -170 13 -93 c14 -102 10
-165 -20 -320 -29 -150 -26 -242 9 -242 15 0 19 27 34 222 10 123 17 278 17
344 0 134 12 183 57 243 32 42 124 261 116 275 -4 5 -23 -26 -44 -70 -45 -96
-48 -82 -11 51 42 145 69 320 52 330 -4 3 -11 -17 -15 -43z"/>
<path d="M2651 1325 l-31 -36 2 -127 1 -127 11 115 11 115 5 -115 c6 -144 20
-123 29 44 4 82 10 121 19 124 17 5 17 -269 0 -286 -7 -7 -36 -12 -65 -12
l-53 0 0 115 0 115 -28 0 c-46 0 -52 -15 -52 -125 0 -71 -4 -107 -14 -121 -11
-15 -15 -65 -18 -196 -3 -172 -2 -177 20 -201 45 -48 184 -70 275 -43 89 26
87 20 87 234 0 103 -4 193 -9 201 -5 8 -29 17 -53 20 l-43 6 -5 155 c-3 85 -9
161 -13 168 -14 22 -44 13 -76 -23z m-101 -207 c0 -70 -3 -98 -10 -88 -17 26
-11 190 6 190 2 0 4 -46 4 -102z m279 -260 c-1 -73 -4 -158 -7 -188 -6 -48
-11 -57 -37 -70 -37 -19 -174 -19 -228 -1 -67 23 -67 23 -67 217 l0 174 170 0
170 0 -1 -132z"/>
<path d="M960 1306 c0 -6 60 -257 67 -281 5 -17 2 -16 -16 5 l-21 25 14 -40
c7 -22 23 -56 35 -75 12 -21 21 -52 21 -76 0 -53 10 -104 21 -104 4 0 9 21 11
48 3 47 3 47 31 -51 15 -54 37 -153 48 -220 11 -67 27 -149 35 -182 8 -36 14
-114 14 -197 0 -134 1 -138 21 -138 21 0 21 2 16 162 -4 142 -8 173 -32 243
-14 44 -31 119 -36 167 -6 62 -34 170 -99 380 -98 319 -105 338 -120 338 -5 0
-10 -2 -10 -4z"/>
</g>
</svg>
